<svg width="28" height="30" viewBox="0 0 28 30" fill="none" xmlns="http://www.w3.org/2000/svg">
<path d="M13.606 28.5075C21.0218 28.5075 26.3189 25.8842 26.3189 20.0452C26.3189 13.6986 23.1406 9.46744 16.7842 6.29411L19.2844 3.07844C19.4114 2.86747 19.4803 2.62671 19.4841 2.38057C19.4879 2.13443 19.4264 1.89167 19.306 1.67689C19.1855 1.4621 19.0103 1.28294 18.7981 1.15755C18.586 1.03216 18.3444 0.965005 18.0978 0.962891H9.11407C8.86753 0.965005 8.62594 1.03216 8.41378 1.15755C8.2016 1.28294 8.02642 1.4621 7.90597 1.67689C7.78549 1.89167 7.72404 2.13443 7.72784 2.38057C7.73163 2.62671 7.80051 2.86747 7.92753 3.07844L10.4277 6.31525C4.07129 9.50975 0.893066 13.7409 0.893066 20.0876C0.893066 25.8842 6.19011 28.5075 13.606 28.5075Z" stroke="black" stroke-width="1.43232" stroke-linecap="round" stroke-linejoin="round"/>
<path d="M16.5363 14.3232C16.4356 14.0381 16.2801 13.7789 16.0825 13.5581C15.6622 13.0885 15.0514 12.793 14.3716 12.793H12.5949C11.4632 12.793 10.5459 13.7103 10.5459 14.8419C10.5459 15.8048 11.2164 16.6377 12.157 16.8435L14.8621 17.4353C15.9159 17.6658 16.667 18.5996 16.667 19.6783C16.667 20.946 15.6393 21.9746 14.3716 21.9746H12.8413C11.8419 21.9746 10.9916 21.3358 10.6765 20.4443" stroke="black" stroke-width="1.43232" stroke-linecap="round" stroke-linejoin="round"/>
<path d="M13.606 12.793V10.4976" stroke="black" stroke-width="1.43232" stroke-linecap="round" stroke-linejoin="round"/>
<path d="M13.606 24.2701V21.9746" stroke="black" stroke-width="1.43232" stroke-linecap="round" stroke-linejoin="round"/>
</svg>
