<svg width="320" height="169" viewBox="0 0 320 169" fill="none" xmlns="http://www.w3.org/2000/svg">
<path d="M16.124 157.826C16.2853 156.96 16.718 156.249 17.422 155.692C18.126 155.134 18.9327 154.856 19.842 154.856C20.6633 154.856 21.3893 155.061 22.02 155.472C22.636 155.868 23.12 156.447 23.472 157.21C23.824 157.972 24 158.874 24 159.916V166.538H8.644L8.644 160.202C8.644 159.16 8.81267 158.266 9.15 157.518C9.48733 156.755 9.95667 156.183 10.558 155.802C11.1593 155.406 11.8413 155.208 12.604 155.208C13.4987 155.208 14.2467 155.45 14.848 155.934C15.4493 156.403 15.8747 157.034 16.124 157.826ZM14.98 163.458L14.98 160.642C14.98 159.908 14.8187 159.344 14.496 158.948C14.1587 158.552 13.682 158.354 13.066 158.354C12.45 158.354 11.9733 158.552 11.636 158.948C11.2987 159.344 11.13 159.908 11.13 160.642L11.13 163.458H14.98ZM21.492 160.356C21.492 159.608 21.316 159.028 20.964 158.618C20.612 158.192 20.1133 157.98 19.468 157.98C18.808 157.98 18.2947 158.2 17.928 158.64C17.5467 159.08 17.356 159.674 17.356 160.422V163.458H21.492V160.356Z" fill="white"/>
<path d="M26.3088 136.158C26.0931 137.311 25.6468 138.302 24.9697 139.131C24.2781 139.956 23.414 140.548 22.3771 140.907C21.343 141.25 20.2132 141.308 18.9877 141.079C17.7623 140.85 16.7309 140.381 15.8935 139.672C15.0588 138.949 14.4768 138.072 14.1474 137.041C13.8036 136.007 13.7395 134.913 13.9551 133.76C14.1708 132.606 14.6257 131.61 15.3199 130.769C15.9997 129.927 16.858 129.326 17.8949 128.968C18.9344 128.595 20.0669 128.523 21.2923 128.752C22.5178 128.981 23.5465 129.465 24.3785 130.202C25.2132 130.925 25.8011 131.811 26.1422 132.859C26.4716 133.891 26.5271 134.99 26.3088 136.158ZM23.6704 135.665C23.7729 135.117 23.7388 134.581 23.5683 134.057C23.386 133.515 23.0551 133.051 22.5756 132.663C22.096 132.275 21.4742 132.009 20.7101 131.866C19.5712 131.654 18.6423 131.793 17.9236 132.286C17.1932 132.761 16.7471 133.431 16.5854 134.296C16.4236 135.161 16.5975 135.947 17.1069 136.654C17.6046 137.344 18.4229 137.795 19.5619 138.008C20.7008 138.221 21.6328 138.104 22.3579 137.658C23.0712 137.194 23.5087 136.53 23.6704 135.665Z" fill="white"/>
<path d="M32.9726 112.004C32.5487 113.098 31.9278 113.99 31.11 114.679C30.2785 115.364 29.3202 115.787 28.2352 115.949C27.1555 116.097 26.0343 115.946 24.8718 115.495C23.7093 115.045 22.7816 114.395 22.0887 113.545C21.4011 112.681 20.9901 111.711 20.8559 110.637C20.708 109.557 20.846 108.47 21.2699 107.376C21.6938 106.282 22.3242 105.386 23.161 104.688C23.9841 103.984 24.9382 103.552 26.0232 103.39C27.1136 103.215 28.24 103.352 29.4025 103.802C30.565 104.253 31.4874 104.917 32.1697 105.794C32.8573 106.658 33.2725 107.637 33.4151 108.73C33.5493 109.805 33.4018 110.896 32.9726 112.004ZM30.4698 111.034C30.6712 110.514 30.7362 109.981 30.6649 109.435C30.5852 108.869 30.3453 108.351 29.9453 107.882C29.5452 107.412 28.9828 107.037 28.2579 106.756C27.1774 106.338 26.2387 106.305 25.4418 106.657C24.6364 106.99 24.0748 107.566 23.7568 108.387C23.4389 109.207 23.4653 110.012 23.8361 110.8C24.1986 111.57 24.9201 112.164 26.0005 112.582C27.081 113.001 28.0186 113.057 28.8133 112.752C29.5997 112.427 30.1519 111.855 30.4698 111.034Z" fill="white"/>
<path d="M44.4139 88.7555C43.8888 89.6034 43.2681 90.2714 42.5519 90.7595C41.8231 91.2398 41.0733 91.5174 40.3024 91.5922C39.5393 91.6545 38.8281 91.5075 38.169 91.1511L39.8022 88.5139C40.2321 88.7111 40.6823 88.7224 41.1527 88.5478C41.6308 88.3608 42.0281 88.0117 42.3447 87.5004C42.6536 87.0017 42.7932 86.5534 42.7636 86.1555C42.7416 85.7452 42.5748 85.4436 42.263 85.2506C41.9263 85.0421 41.5688 85.0623 41.1905 85.3111C40.8074 85.5397 40.2844 85.9663 39.6216 86.5909C38.9558 87.2482 38.3687 87.7645 37.8602 88.1397C37.3596 88.5025 36.7915 88.7373 36.156 88.8442C35.5283 88.9385 34.8652 88.7696 34.1669 88.3373C33.5932 87.9821 33.1699 87.4958 32.8968 86.8782C32.6314 86.2482 32.5507 85.5428 32.6547 84.7619C32.7665 83.9686 33.081 83.1543 33.5984 82.3188C34.3629 81.0844 35.2847 80.2923 36.3638 79.9426C37.4305 79.5852 38.5107 79.6934 39.6046 80.267L38.0525 82.7733C37.6178 82.556 37.1854 82.5298 36.7554 82.6949C36.3207 82.8397 35.945 83.1678 35.6284 83.679C35.335 84.1529 35.1945 84.5747 35.2069 84.9447C35.227 85.3021 35.393 85.5774 35.7048 85.7704C36.0539 85.9865 36.4302 85.9779 36.8334 85.7446C37.2242 85.5035 37.741 85.0731 38.3836 84.4532C39.034 83.8208 39.6095 83.3233 40.1102 82.9605C40.6109 82.5977 41.1814 82.373 41.8216 82.2863C42.457 82.1795 43.1216 82.3321 43.8152 82.7443C44.4138 83.1148 44.8457 83.6151 45.1111 84.2451C45.3842 84.8627 45.4649 85.5681 45.3532 86.3614C45.2367 87.1345 44.9236 87.9326 44.4139 88.7555Z" fill="white"/>
<path d="M52.5528 61.706L56.9104 65.6777C57.2139 65.9543 57.5003 66.0864 57.7697 66.074C58.0381 66.0408 58.3305 65.8508 58.6467 65.504L59.6102 64.4473L61.5288 66.196L60.2244 67.6266C58.4753 69.545 56.6685 69.6544 54.8041 67.9551L50.4628 63.9982L49.4845 65.0712L47.6146 63.3669L48.5929 62.2939L46.3654 60.2636L48.4554 57.9714L50.683 60.0017L52.521 57.9859L54.3908 59.6902L52.5528 61.706Z" fill="white"/>
<path d="M78.4862 43.2198C78.7513 43.5709 78.9666 43.9045 79.1319 44.2208L72.0211 49.5896C72.61 50.2476 73.2713 50.6121 74.0049 50.683C74.7386 50.754 75.4214 50.5508 76.0535 50.0736C76.9665 49.3842 77.32 48.5017 77.114 47.4259L79.7652 45.4242C80.1914 46.5726 80.2364 47.7515 79.9001 48.9611C79.555 50.1589 78.8031 51.1953 77.6443 52.0702C76.7079 52.7772 75.7104 53.2087 74.6519 53.3647C73.5962 53.5001 72.5704 53.3466 71.5745 52.904C70.5902 52.4526 69.7224 51.7295 68.971 50.7347C68.2108 49.7282 67.7483 48.6899 67.5834 47.6199C67.4185 46.5498 67.55 45.5316 67.9781 44.5652C68.4061 43.5988 69.1 42.7533 70.0598 42.0286C70.9845 41.3305 71.96 40.9064 72.9863 40.7564C74.0242 40.5975 75.0207 40.7365 75.9755 41.1733C76.9333 41.5896 77.7701 42.2718 78.4862 43.2198ZM75.4099 44.4397C74.9209 43.8166 74.3125 43.4857 73.5849 43.447C72.8484 43.3966 72.1582 43.6144 71.5144 44.1005C70.9058 44.5601 70.5322 45.1362 70.3937 45.8288C70.258 46.5009 70.3909 47.2001 70.7923 47.9262L75.4099 44.4397Z" fill="white"/>
<path d="M94.5955 29.1932C94.6623 28.4391 94.8963 27.7574 95.2974 27.1481C95.7116 26.5323 96.2864 26.0413 97.0216 25.6753L98.4634 28.5702L97.7347 28.9329C96.8681 29.3643 96.313 29.8947 96.0693 30.5239C95.8387 31.1466 95.9752 31.9634 96.4786 32.9743L99.1855 38.4095L96.4283 39.7822L90.9949 28.8723L93.7521 27.4997L94.5955 29.1932Z" fill="white"/>
<path d="M145.53 11.1176C144.989 11.1677 144.521 11.0417 144.125 10.7396C143.742 10.4216 143.527 10.007 143.479 9.49583C143.432 8.98469 143.568 8.54494 143.887 8.17657C144.22 7.79225 144.656 7.57506 145.197 7.52499C145.737 7.47493 146.199 7.60892 146.582 7.92694C146.978 8.22901 147.2 8.63562 147.247 9.14676C147.295 9.6579 147.152 10.1056 146.819 10.49C146.5 10.8583 146.07 11.0675 145.53 11.1176ZM147.175 12.4234L148.3 24.5594L145.233 24.8435L144.108 12.7075L147.175 12.4234Z" fill="white"/>
<path d="M173.932 12.3494C175.378 12.4834 176.504 13.0517 177.31 14.0542C178.116 15.0422 178.444 16.354 178.293 17.9897L177.633 25.1092L174.566 24.8251L175.187 18.1218C175.276 17.1579 175.104 16.3981 174.669 15.8423C174.236 15.2719 173.603 14.9481 172.771 14.871C171.924 14.7926 171.228 14.9932 170.682 15.4729C170.153 15.9394 169.844 16.6546 169.754 17.6185L169.133 24.3218L166.066 24.0376L167.191 11.9016L170.258 12.1858L170.118 13.6973C170.575 13.2094 171.132 12.8485 171.787 12.6146C172.458 12.3675 173.173 12.2791 173.932 12.3494Z" fill="white"/>
<path d="M200.309 15.9477C199.773 15.7952 199.375 15.5066 199.115 15.0818C198.873 14.647 198.822 14.1827 198.962 13.6889C199.103 13.1952 199.388 12.8343 199.819 12.6061C200.268 12.3679 200.761 12.325 201.297 12.4775C201.819 12.626 202.201 12.9177 202.443 13.3526C202.689 13.7733 202.742 14.2306 202.602 14.7243C202.461 15.218 202.174 15.586 201.739 15.8283C201.308 16.0564 200.831 16.0962 200.309 15.9477ZM197.488 31.4078C197.119 32.7056 196.529 33.5443 195.72 33.924C194.92 34.3217 193.921 34.3501 192.722 34.009L191.41 33.6357L192.127 31.1177L192.973 31.3585C193.425 31.4869 193.768 31.4855 194.004 31.3543C194.235 31.2372 194.407 30.9812 194.52 30.5862L198.41 16.9169L201.372 17.7596L197.488 31.4078Z" fill="white"/>
<path d="M228.249 35.0081C228.053 35.402 227.85 35.7434 227.641 36.0323L219.664 32.0614C219.338 32.8818 219.306 33.6361 219.57 34.3243C219.833 35.0125 220.319 35.5331 221.028 35.8861C222.052 36.3959 223 36.3189 223.871 35.655L226.845 37.1355C226.007 38.0289 224.972 38.5947 223.739 38.8329C222.513 39.058 221.249 38.847 219.95 38.1999C218.899 37.677 218.068 36.9766 217.457 36.0987C216.865 35.2143 216.545 34.2278 216.498 33.1391C216.463 32.057 216.724 30.9579 217.28 29.842C217.842 28.7129 218.565 27.8361 219.45 27.2115C220.334 26.587 221.305 26.2508 222.361 26.2031C223.417 26.1554 224.483 26.3996 225.56 26.9356C226.597 27.452 227.411 28.136 228.003 28.9876C228.608 29.8458 228.928 30.7995 228.962 31.8489C229.016 32.8916 228.779 33.9447 228.249 35.0081ZM225.786 32.7987C226.125 32.0832 226.151 31.3912 225.861 30.7227C225.578 30.0411 225.075 29.5205 224.353 29.161C223.67 28.8211 222.988 28.7436 222.306 28.9284C221.644 29.1066 221.077 29.5371 220.606 30.22L225.786 32.7987Z" fill="white"/>
<path d="M240.23 42.5813C240.99 41.5748 241.858 40.8517 242.833 40.412C243.817 39.9606 244.827 39.804 245.862 39.9423C246.906 40.0689 247.896 40.4857 248.833 41.1927C250.038 42.103 250.803 43.1585 251.128 44.3592C251.473 45.557 251.369 46.8018 250.816 48.0935L248.165 46.0918C248.343 45.5644 248.351 45.0555 248.188 44.5652C248.046 44.0719 247.729 43.6397 247.237 43.2685C246.535 42.7383 245.785 42.576 244.986 42.7816C244.196 42.9756 243.448 43.5407 242.74 44.4769C242.042 45.4015 241.703 46.2759 241.724 47.1002C241.754 47.9128 242.12 48.5842 242.822 49.1144C243.817 49.8656 244.802 49.9114 245.779 49.2517L248.43 51.2534C247.365 52.1035 246.2 52.5381 244.936 52.5575C243.671 52.5768 242.442 52.1357 241.248 51.2343C240.312 50.5273 239.636 49.695 239.219 48.7375C238.812 47.7682 238.686 46.7544 238.842 45.6961C239.007 44.6261 239.47 43.5878 240.23 42.5813Z" fill="white"/>
<path d="M267.836 62.132L263.479 66.1037C263.175 66.3803 263.017 66.6533 263.005 66.9226C263.013 67.1929 263.175 67.5015 263.491 67.8483L264.455 68.905L262.536 70.6537L261.232 69.2231C259.483 67.3048 259.54 65.496 261.405 63.7966L265.746 59.8398L264.768 58.7668L266.638 57.0625L267.616 58.1355L269.844 56.1052L271.934 58.3974L269.706 60.4277L271.544 62.4435L269.674 64.1478L267.836 62.132Z" fill="white"/>
<path d="M286.875 80.7025C286.59 80.2411 286.494 79.7658 286.588 79.2765C286.701 78.792 286.977 78.4146 287.413 78.1444C287.85 77.8742 288.304 77.8 288.776 77.9217C289.268 78.0481 289.657 78.342 289.943 78.8034C290.229 79.2647 290.315 79.7377 290.201 80.2222C290.107 80.7115 289.842 81.0913 289.405 81.3615C288.969 81.6317 288.505 81.7035 288.012 81.5771C287.54 81.4554 287.161 81.1639 286.875 80.7025ZM286.44 82.7573L276.077 89.1726L274.455 86.5541L284.818 80.1388L286.44 82.7573Z" fill="white"/>
<path d="M286.235 109.96C285.811 108.865 285.669 107.788 285.809 106.727C285.962 105.661 286.385 104.703 287.078 103.853C287.776 103.016 288.706 102.373 289.869 101.923C291.031 101.472 292.155 101.328 293.24 101.49C294.331 101.665 295.287 102.105 296.11 102.808C296.947 103.506 297.578 104.402 298.001 105.497C298.425 106.591 298.563 107.677 298.415 108.757C298.281 109.831 297.868 110.794 297.175 111.644C296.487 112.508 295.562 113.165 294.4 113.616C293.237 114.066 292.108 114.196 291.012 114.007C289.922 113.832 288.956 113.388 288.114 112.676C287.291 111.973 286.664 111.067 286.235 109.96ZM288.738 108.99C288.939 109.51 289.251 109.948 289.672 110.304C290.112 110.668 290.638 110.889 291.25 110.966C291.862 111.044 292.53 110.942 293.255 110.662C294.335 110.243 295.052 109.635 295.403 108.838C295.774 108.05 295.801 107.245 295.483 106.425C295.165 105.604 294.603 105.028 293.798 104.695C293.011 104.37 292.078 104.417 290.998 104.836C289.917 105.254 289.186 105.844 288.805 106.605C288.442 107.375 288.42 108.17 288.738 108.99Z" fill="white"/>
<path d="M305.883 133.015C306.15 134.442 305.911 135.68 305.168 136.73C304.438 137.776 303.266 138.45 301.651 138.752L294.623 140.066L294.057 137.038L300.674 135.801C301.626 135.623 302.31 135.249 302.725 134.679C303.155 134.107 303.293 133.409 303.14 132.588C302.983 131.751 302.6 131.137 301.989 130.744C301.396 130.362 300.623 130.26 299.672 130.438L293.054 131.675L292.488 128.647L304.469 126.408L305.035 129.436L303.543 129.715C304.137 130.021 304.637 130.458 305.041 131.024C305.462 131.602 305.743 132.265 305.883 133.015Z" fill="white"/>
<path d="M295.802 159.791C295.802 158.794 295.978 157.899 296.33 157.107C296.697 156.315 297.188 155.685 297.804 155.215C298.42 154.761 299.102 154.511 299.85 154.467V157.569C299.381 157.628 298.992 157.855 298.684 158.251C298.376 158.662 298.222 159.168 298.222 159.769C298.222 160.356 298.339 160.811 298.574 161.133C298.809 161.471 299.109 161.639 299.476 161.639C299.872 161.639 300.165 161.434 300.356 161.023C300.561 160.627 300.781 159.989 301.016 159.109C301.236 158.2 301.463 157.452 301.698 156.865C301.933 156.293 302.292 155.795 302.776 155.369C303.26 154.959 303.913 154.753 304.734 154.753C305.409 154.753 306.025 154.944 306.582 155.325C307.139 155.721 307.579 156.279 307.902 156.997C308.225 157.731 308.386 158.589 308.386 159.571C308.386 161.023 308.019 162.182 307.286 163.047C306.567 163.913 305.592 164.389 304.36 164.477V161.529C304.844 161.485 305.225 161.28 305.504 160.913C305.797 160.561 305.944 160.085 305.944 159.483C305.944 158.926 305.841 158.493 305.636 158.185C305.431 157.892 305.145 157.745 304.778 157.745C304.367 157.745 304.052 157.951 303.832 158.361C303.627 158.772 303.414 159.41 303.194 160.275C302.974 161.155 302.747 161.881 302.512 162.453C302.277 163.025 301.911 163.517 301.412 163.927C300.928 164.353 300.283 164.573 299.476 164.587C298.772 164.587 298.141 164.389 297.584 163.993C297.027 163.612 296.587 163.055 296.264 162.321C295.956 161.603 295.802 160.759 295.802 159.791Z" fill="white"/>
</svg>
