<svg width="28" height="28" viewBox="0 0 28 28" fill="none" xmlns="http://www.w3.org/2000/svg">
<path d="M12.8034 4.0054C14.2881 2.52065 16.3019 1.68652 18.4017 1.68652C20.5014 1.68652 22.5152 2.52065 23.9999 4.0054C25.4846 5.49015 26.3189 7.50391 26.3189 9.60367C26.3189 11.7034 25.4846 13.7172 23.9999 15.2019L14.4085 24.7933C12.9237 26.2781 10.91 27.1123 8.81021 27.1123C6.71045 27.1123 4.6967 26.2781 3.21194 24.7933C1.72719 23.3086 0.893066 21.2948 0.893066 19.1951C0.893066 17.0953 1.72719 15.0816 3.21194 13.5968L12.8034 4.0054Z" stroke="black" stroke-width="1.59827" stroke-linecap="round" stroke-linejoin="round"/>
<path d="M8.49658 8.31152L19.6931 19.5081" stroke="black" stroke-width="1.59827" stroke-linecap="round" stroke-linejoin="round"/>
</svg>
