<svg width="15" height="18" viewBox="0 0 15 18" fill="none" xmlns="http://www.w3.org/2000/svg">
<path d="M6.21978 6.04795C6.55873 5.8128 6.95423 5.73434 7.34974 5.89111C8.31025 6.12626 9.04476 7.38045 9.04476 8.79135V11.0645C9.04476 11.9267 8.53625 12.6321 7.91475 12.6321H6.78473L5.59827 15.9242C5.31577 16.708 4.63776 16.9432 4.12925 16.4729C3.67725 16.081 3.56424 15.2971 3.79025 14.6701L4.52476 12.6321" stroke="black" stroke-width="0.7495" stroke-miterlimit="10" stroke-linecap="round" stroke-linejoin="round"/>
<path d="M2.54771 12.6318L1.8132 14.6698C1.58719 15.2969 1.7002 16.0807 2.1522 16.4726C2.66071 16.9429 3.33872 16.7078 3.62122 15.9239L3.71906 15.7096" stroke="black" stroke-width="0.7495" stroke-miterlimit="10" stroke-linecap="round" stroke-linejoin="round"/>
<path d="M6.7855 4.63302C7.56567 4.63302 8.19802 3.75569 8.19802 2.67344C8.19802 1.5912 7.56567 0.713867 6.7855 0.713867C6.00545 0.713867 5.37305 1.5912 5.37305 2.67344C5.37305 3.75569 6.00545 4.63302 6.7855 4.63302Z" stroke="black" stroke-width="0.7495" stroke-miterlimit="10" stroke-linecap="round" stroke-linejoin="round"/>
<path d="M12.7642 16.7139H8.24414" stroke="black" stroke-width="0.7495" stroke-miterlimit="10" stroke-linecap="round" stroke-linejoin="round"/>
<path d="M9.93799 5.73828H11.068C12.0285 5.73828 12.763 6.75726 12.763 8.08974V10.4412" stroke="black" stroke-width="0.7495" stroke-miterlimit="10" stroke-linecap="round" stroke-linejoin="round"/>
<path d="M13.8939 16.713H11.0688V12.01C11.0688 11.1478 11.5774 10.4424 12.1989 10.4424H12.7639C13.3854 10.4424 13.8939 11.1478 13.8939 12.01V16.713Z" stroke="black" stroke-width="0.7495" stroke-miterlimit="10" stroke-linecap="round" stroke-linejoin="round"/>
<path d="M5.37303 10.2014H2.15249C1.98299 10.2014 1.81348 10.0446 1.75698 9.80949L1.19198 6.98775C1.13548 6.59584 1.30498 6.28223 1.58748 6.28223H4.29952C4.46902 6.28223 4.63852 6.43899 4.69502 6.67414L5.37303 10.2014Z" stroke="black" stroke-width="0.7495" stroke-miterlimit="10" stroke-linecap="round" stroke-linejoin="round"/>
<path d="M7.06808 10.2012H5.37305" stroke="black" stroke-width="0.7495" stroke-miterlimit="10" stroke-linecap="round" stroke-linejoin="round"/>
</svg>
