<svg width="21" height="21" viewBox="0 0 21 21" fill="none" xmlns="http://www.w3.org/2000/svg">
<path d="M16.0855 5.43474C15.8657 5.43474 15.6875 5.25654 15.6875 5.03671C15.6875 4.81688 15.8657 4.63867 16.0855 4.63867" stroke="black" stroke-width="1.5" stroke-linecap="round" stroke-linejoin="round"/>
<path d="M16.0854 5.43474C16.3053 5.43474 16.4835 5.25654 16.4835 5.03671C16.4835 4.81688 16.3053 4.63867 16.0854 4.63867" stroke="black" stroke-width="1.5" stroke-linecap="round" stroke-linejoin="round"/>
<path d="M1 5.0966C1 2.83412 2.83411 1 5.09661 1H16.021C18.2834 1 20.1175 2.83412 20.1175 5.0966V16.0209C20.1175 18.2833 18.2834 20.1175 16.021 20.1175H5.09661C2.83411 20.1175 1 18.2833 1 16.0209V5.0966Z" stroke="black" stroke-width="1.5" stroke-linecap="round" stroke-linejoin="round"/>
<path d="M6.49902 10.559C6.49902 11.6358 6.92677 12.6684 7.68816 13.4298C8.44955 14.1912 9.48222 14.619 10.559 14.619C11.6358 14.619 12.6684 14.1912 13.4298 13.4298C14.1912 12.6684 14.619 11.6358 14.619 10.559C14.619 9.48222 14.1912 8.44955 13.4298 7.68816C12.6684 6.92677 11.6358 6.49902 10.559 6.49902C9.48222 6.49902 8.44955 6.92677 7.68816 7.68816C6.92677 8.44955 6.49902 9.48222 6.49902 10.559Z" stroke="black" stroke-width="1.5" stroke-linecap="round" stroke-linejoin="round"/>
</svg>
