<svg width="28" height="28" viewBox="0 0 28 28" fill="none" xmlns="http://www.w3.org/2000/svg">
<path d="M1.24782 7.66145C1.37495 6.37018 2.25879 5.33196 3.53916 5.12129C5.3444 4.82345 8.50264 4.4917 13.606 4.4917C18.7093 4.4917 21.8675 4.82345 23.6734 5.12129C24.9531 5.33196 25.8376 6.37018 25.9641 7.66145C26.1312 9.35468 26.3189 12.0141 26.3189 15.3885C26.3189 18.7628 26.1312 21.4222 25.9641 23.1155C25.837 24.4068 24.9531 25.445 23.6728 25.6556C21.8675 25.9535 18.7093 26.2852 13.606 26.2852C8.50264 26.2852 5.345 25.9535 3.53856 25.6556C2.25879 25.445 1.37434 24.4068 1.24782 23.1155C1.08073 21.4222 0.893066 18.7628 0.893066 15.3885C0.893066 12.0147 1.08073 9.35468 1.24782 7.66145Z" stroke="black" stroke-width="1.50243" stroke-linecap="round" stroke-linejoin="round"/>
<path d="M11.2576 20.2181C11.2782 20.7926 11.6439 21.2806 12.2135 21.3574C12.5659 21.4053 13.0265 21.4422 13.6065 21.4422C14.1864 21.4422 14.6471 21.4053 14.9995 21.3574C15.5685 21.2806 15.9348 20.7926 15.956 20.2181C15.9759 19.6703 15.9983 18.8712 16.0129 17.7948C17.0892 17.7803 17.8883 17.7579 18.4362 17.7379C19.0107 17.7167 19.4986 17.3505 19.5755 16.7814C19.6233 16.4291 19.6603 15.9684 19.6603 15.3884C19.6603 14.8085 19.6233 14.3478 19.5755 13.9955C19.4986 13.4264 19.0107 13.0602 18.4362 13.039C17.8883 13.019 17.0892 12.9966 16.0129 12.9821C16.0031 12.1741 15.9841 11.3663 15.956 10.5587C15.9348 9.98424 15.5685 9.49631 14.9995 9.41943C14.5376 9.3601 14.0722 9.33179 13.6065 9.33467C13.0265 9.33467 12.5659 9.3716 12.2135 9.41943C11.6445 9.49631 11.2782 9.98424 11.257 10.5587C11.2371 11.1066 11.2147 11.9057 11.2001 12.9821C10.1238 12.9966 9.32467 13.019 8.7768 13.039C8.2023 13.0602 7.71437 13.4264 7.63749 13.9955C7.58966 14.3478 7.55273 14.8085 7.55273 15.3884C7.55273 15.9684 7.58966 16.4291 7.63749 16.7814C7.71437 17.3505 8.2023 17.7167 8.7768 17.7379C9.32467 17.7579 10.1238 17.7803 11.2001 17.7948C11.2147 18.8712 11.2377 19.6703 11.2576 20.2181Z" stroke="black" stroke-width="1.50243" stroke-linecap="round" stroke-linejoin="round"/>
<path d="M9.20947 4.58491C9.48613 3.73314 9.95893 2.73851 10.3137 2.04112C10.603 1.47206 11.1249 1.06283 11.7569 0.978078C12.3698 0.897417 12.9875 0.857777 13.6057 0.859424C14.3594 0.859424 14.9848 0.914513 15.4539 0.978078C16.0859 1.06283 16.6078 1.47267 16.8971 2.04112C17.2519 2.73791 17.7247 3.73314 18.0013 4.58491" stroke="black" stroke-width="1.50243" stroke-linecap="round" stroke-linejoin="round"/>
</svg>
