<svg width="28" height="27" viewBox="0 0 28 27" fill="none" xmlns="http://www.w3.org/2000/svg">
<path d="M0.893066 4.54541C1.41226 5.93676 2.3992 6.98985 3.40669 7.73544" stroke="black" stroke-width="1.47907" stroke-linecap="round" stroke-linejoin="round"/>
<path d="M12.8708 9.09033H9.0752" stroke="black" stroke-width="1.47907" stroke-linecap="round" stroke-linejoin="round"/>
<path d="M19.1805 12.1627C18.898 12.1627 18.6689 11.9337 18.6689 11.6512C18.6689 11.3687 18.898 11.1396 19.1805 11.1396" stroke="black" stroke-width="1.47907" stroke-linecap="round" stroke-linejoin="round"/>
<path d="M19.1812 12.1627C19.4637 12.1627 19.6927 11.9337 19.6927 11.6512C19.6927 11.3687 19.4637 11.1396 19.1812 11.1396" stroke="black" stroke-width="1.47907" stroke-linecap="round" stroke-linejoin="round"/>
<path d="M20.7561 1.67131V5.91528C23.9531 7.24735 24.5287 9.52044 24.5287 12.4907L26.3191 13.9614V18.5014C25.2639 20.7714 23.3137 21.9543 20.7561 22.8604V24.8744C20.7561 25.4396 20.298 25.8975 19.7331 25.8975H16.1524C15.5873 25.8975 15.1293 25.4396 15.1293 24.8744V22.8604H8.70294V24.7146C8.70294 25.2798 8.24487 25.7377 7.67984 25.7377H4.06696C3.50186 25.7377 3.04378 25.2808 3.04384 24.7157C3.04399 23.4761 3.04413 21.5013 3.04372 21.091C3.04362 20.9959 2.85523 20.4731 2.61204 19.6632C1.8999 17.2913 0.717842 13.2885 2.41798 9.52044C3.84325 6.36157 7.29407 3.95183 14.7454 4.36989C15.8153 1.54349 18.6458 0.805766 20.0911 0.87109C20.5026 0.889684 20.7561 1.25949 20.7561 1.67131Z" stroke="black" stroke-width="1.47907" stroke-linecap="round" stroke-linejoin="round"/>
</svg>
