<svg width="320" height="171" viewBox="0 0 320 171" fill="none" xmlns="http://www.w3.org/2000/svg">
<path d="M24.154 163.752C24.154 164.823 23.9707 165.791 23.604 166.656C23.2373 167.507 22.7093 168.182 22.02 168.68C21.3307 169.179 20.5167 169.436 19.578 169.45L19.578 166.15C20.2087 166.106 20.7073 165.886 21.074 165.49C21.4407 165.08 21.624 164.522 21.624 163.818C21.624 163.1 21.4553 162.535 21.118 162.124C20.766 161.714 20.3113 161.508 19.754 161.508C19.2993 161.508 18.9253 161.648 18.632 161.926C18.3387 162.205 18.1113 162.557 17.95 162.982C17.774 163.393 17.5833 163.965 17.378 164.698C17.0847 165.696 16.7987 166.51 16.52 167.14C16.2267 167.756 15.794 168.292 15.222 168.746C14.6353 169.186 13.858 169.406 12.89 169.406C11.9807 169.406 11.1887 169.179 10.514 168.724C9.83933 168.27 9.326 167.632 8.974 166.81C8.60733 165.989 8.424 165.05 8.424 163.994C8.424 162.41 8.81266 161.127 9.59 160.144C10.3527 159.147 11.4233 158.597 12.802 158.494L12.802 161.882C12.274 161.912 11.8413 162.139 11.504 162.564C11.152 162.975 10.976 163.525 10.976 164.214C10.976 164.816 11.13 165.3 11.438 165.666C11.746 166.018 12.1933 166.194 12.78 166.194C13.1907 166.194 13.5353 166.062 13.814 165.798C14.078 165.52 14.298 165.182 14.474 164.786C14.6353 164.376 14.826 163.804 15.046 163.07C15.3393 162.073 15.6327 161.259 15.926 160.628C16.2193 159.998 16.6593 159.455 17.246 159C17.8327 158.546 18.6027 158.318 19.556 158.318C20.3773 158.318 21.14 158.531 21.844 158.956C22.548 159.382 23.1127 160.005 23.538 160.826C23.9487 161.648 24.154 162.623 24.154 163.752Z" fill="white"/>
<path d="M14.882 139.761C14.4019 139.275 14.0412 138.66 13.7998 137.917C13.5465 137.158 13.4975 136.338 13.6529 135.456C13.8337 134.431 14.2495 133.551 14.9002 132.817C15.5535 132.068 16.3915 131.538 17.4144 131.227C18.4254 130.899 19.5448 130.843 20.7725 131.06C22.0002 131.276 23.0475 131.714 23.9142 132.373C24.769 133.016 25.3825 133.801 25.7547 134.731C26.1296 135.646 26.2265 136.616 26.0457 137.642C25.8903 138.523 25.5723 139.271 25.0915 139.886C24.6132 140.487 24.0627 140.948 23.44 141.27L30.8714 142.581L30.3365 145.614L12.6139 142.489L13.1488 139.456L14.882 139.761ZM20.2262 134.158C19.504 134.031 18.8562 134.073 18.2827 134.285C17.6974 134.479 17.2242 134.798 16.8631 135.241C16.5047 135.669 16.2758 136.165 16.1764 136.728C16.0797 137.277 16.1324 137.822 16.3347 138.364C16.5251 138.889 16.8607 139.351 17.3417 139.748C17.8252 140.131 18.428 140.387 19.1502 140.514C19.8724 140.641 20.5261 140.608 21.1115 140.413C21.6994 140.204 22.1798 139.886 22.5528 139.461C22.9138 139.018 23.1427 138.522 23.2395 137.973C23.3388 137.41 23.286 136.865 23.0812 136.337C22.8789 135.795 22.5361 135.332 22.0526 134.949C21.5716 134.552 20.9628 134.288 20.2262 134.158Z" fill="white"/>
<path d="M27.4875 107.847C27.9009 107.998 28.263 108.161 28.5737 108.336L25.5263 116.709C26.3783 116.941 27.1314 116.888 27.7856 116.548C28.4398 116.209 28.9024 115.667 29.1733 114.923C29.5645 113.848 29.3812 112.915 28.6234 112.124L29.7596 109.002C30.7417 109.734 31.4206 110.699 31.7962 111.897C32.1579 113.09 32.0905 114.369 31.5939 115.734C31.1926 116.836 30.5903 117.741 29.7868 118.447C28.9747 119.135 28.0303 119.564 26.9539 119.734C25.8825 119.89 24.7611 119.755 23.5896 119.329C22.4043 118.897 21.4515 118.277 20.7313 117.469C20.011 116.661 19.5677 115.734 19.4013 114.691C19.235 113.647 19.3575 112.56 19.7688 111.43C20.1651 110.341 20.7531 109.454 21.5327 108.77C22.3173 108.073 23.229 107.648 24.2678 107.495C25.2979 107.324 26.3711 107.441 27.4875 107.847ZM25.5695 110.544C24.8202 110.287 24.1298 110.34 23.4981 110.703C22.8527 111.061 22.3921 111.62 22.1162 112.378C21.8553 113.094 21.8551 113.781 22.1155 114.438C22.3672 115.075 22.8589 115.59 23.5906 115.981L25.5695 110.544Z" fill="white"/>
<path d="M32.7246 96.2608C31.6322 95.6301 30.8079 94.8578 30.2517 93.9439C29.6827 93.0227 29.4033 92.04 29.4134 90.9958C29.4108 89.9443 29.7028 88.9105 30.2895 87.8944C31.0448 86.5861 31.9984 85.6971 33.1502 85.2274C34.2967 84.7377 35.5449 84.6878 36.8948 85.0776L35.2338 87.9546C34.6886 87.843 34.1826 87.8981 33.7159 88.1197C33.2438 88.3214 32.8538 88.689 32.5458 89.2224C32.1058 89.9845 32.0369 90.7492 32.3391 91.5164C32.6286 92.2763 33.2814 92.9496 34.2975 93.5363C35.301 94.1156 36.2105 94.3443 37.026 94.2224C37.8289 94.0932 38.4503 93.6475 38.8903 92.8854C39.5136 91.8058 39.4379 90.8222 38.6633 89.9346L40.3243 87.0576C41.2988 88.0098 41.8733 89.112 42.0478 90.3644C42.2223 91.6168 41.9356 92.8908 41.1876 94.1864C40.6009 95.2025 39.858 95.976 38.9587 96.5068C38.0468 97.0303 37.0561 97.2797 35.9865 97.2549C34.9042 97.2228 33.8169 96.8914 32.7246 96.2608Z" fill="white"/>
<path d="M44.6304 64.6953C44.2816 65.111 43.8601 65.3509 43.366 65.415C42.8701 65.4583 42.4255 65.3151 42.0323 64.9851C41.639 64.6551 41.4264 64.2469 41.3942 63.7604C41.3602 63.2533 41.5177 62.7919 41.8665 62.3762C42.2153 61.9604 42.6377 61.7309 43.1336 61.6875C43.6277 61.6235 44.0713 61.7564 44.4646 62.0864C44.8578 62.4163 45.0714 62.8349 45.1054 63.342C45.1375 63.8285 44.9792 64.2796 44.6304 64.6953ZM46.7184 64.4658L56.055 72.3L54.0752 74.6595L44.7387 66.8252L46.7184 64.4658Z" fill="white"/>
<path d="M62.1724 56.5396C61.3805 55.5959 60.8635 54.6033 60.6215 53.5619C60.3907 52.5111 60.4305 51.5203 60.741 50.5897C61.0627 49.6497 61.6224 48.845 62.4201 48.1756C63.1166 47.5911 63.8412 47.2225 64.5937 47.0697C65.3575 46.9075 66.0758 46.9079 66.7486 47.0708L65.6314 45.7395L68.0077 43.7455L75.842 53.0821L73.4657 55.076L72.3203 53.7109C72.3846 54.4036 72.2697 55.1223 71.9755 55.8669C71.6831 56.5909 71.1887 57.2452 70.4921 57.8297C69.7056 58.4896 68.8168 58.8907 67.8258 59.0331C66.846 59.166 65.8587 59.0275 64.8639 58.6178C63.8709 58.1874 62.9738 57.4946 62.1724 56.5396ZM69.5486 50.4077C69.0678 49.8347 68.5453 49.4403 67.9812 49.2243C67.4077 48.9972 66.8404 48.9371 66.2792 49.0442C65.7087 49.14 65.2043 49.3718 64.7662 49.7395C64.328 50.1071 64.0131 50.5533 63.8214 51.0778C63.6298 51.6024 63.5904 52.1716 63.7033 52.7852C63.818 53.3783 64.111 53.9557 64.5824 54.5174C65.0538 55.0792 65.5809 55.4793 66.1639 55.7177C66.7486 55.9354 67.3207 56.0011 67.88 55.9146C68.4505 55.8188 68.9493 55.5918 69.3762 55.2335C69.8144 54.8659 70.1349 54.415 70.3378 53.881C70.5313 53.3358 70.5706 52.7666 70.456 52.1736C70.3318 51.5693 70.0294 50.9807 69.5486 50.4077Z" fill="white"/>
<path d="M84.1794 27.9375L92.3194 42.0364L89.6521 43.5764L81.512 29.4775L84.1794 27.9375Z" fill="white"/>
<path d="M109.68 23.3096L111.696 28.85C111.837 29.2359 112.029 29.4858 112.274 29.5998C112.527 29.6949 112.874 29.6623 113.315 29.5017L114.659 29.0126L115.547 31.4521L113.727 32.1142C111.288 33.0021 109.637 32.2608 108.774 29.8903L106.765 24.3705L105.401 24.8671L104.535 22.4897L105.9 21.9931L104.869 19.1608L107.784 18.0999L108.815 20.9321L111.378 19.9991L112.243 22.3765L109.68 23.3096Z" fill="white"/>
<path d="M138.221 13.3666L133.907 32.3563L130.679 32.9255L132.225 26.4873L125.352 15.6359L128.753 15.0361L133.33 22.8745L134.993 13.9359L138.221 13.3666Z" fill="white"/>
<path d="M184.853 12.4347C184.319 12.3405 183.9 12.0954 183.598 11.6995C183.312 11.2918 183.214 10.8351 183.303 10.3296C183.392 9.82404 183.64 9.43573 184.045 9.16465C184.467 8.88167 184.945 8.78729 185.48 8.88153C186.014 8.97576 186.424 9.22677 186.71 9.63455C187.012 10.0304 187.119 10.4811 187.03 10.9867C186.941 11.4922 186.685 11.8865 186.263 12.1694C185.858 12.4405 185.388 12.5289 184.853 12.4347ZM186.096 14.1283L183.98 26.1311L180.946 25.5962L183.063 13.5934L186.096 14.1283Z" fill="white"/>
<path d="M209.907 20.2781C211.271 20.7747 212.216 21.6101 212.74 22.7844C213.27 23.9449 213.254 25.2969 212.692 26.8405L210.247 33.5594L207.353 32.5059L209.655 26.1799C209.986 25.2703 210.012 24.4915 209.733 23.8436C209.459 23.1819 208.929 22.7081 208.143 22.4222C207.344 22.1312 206.619 22.1486 205.97 22.4742C205.34 22.791 204.859 23.4042 204.528 24.3139L202.226 30.6399L199.331 29.5865L203.5 18.1335L206.394 19.1869L205.875 20.6134C206.441 20.2577 207.071 20.0498 207.764 19.9899C208.476 19.9212 209.19 20.0172 209.907 20.2781Z" fill="white"/>
<path d="M234.1 34.5897L232.252 33.5228L227.423 41.8868L224.718 40.3248L229.547 31.9608L228.346 31.2678L229.611 29.0767L230.812 29.7697L231.12 29.2362C231.868 27.9407 232.786 27.2007 233.875 27.0163C234.963 26.832 236.24 27.1879 237.704 28.084L236.406 30.3322C235.765 29.9455 235.252 29.7931 234.866 29.8751C234.48 29.957 234.115 30.2965 233.77 30.8935L233.517 31.3317L235.365 32.3987L234.1 34.5897Z" fill="white"/>
<path d="M258.212 48.9631L250.377 58.2997L248.001 56.3058L248.991 55.1261C248.348 55.276 247.681 55.2615 246.988 55.0827C246.317 54.902 245.694 54.5712 245.121 54.0904C244.391 53.4776 243.872 52.7839 243.565 52.0092C243.267 51.2232 243.205 50.3958 243.379 49.5269C243.574 48.6562 244.02 47.8052 244.717 46.9738L249.313 41.4965L251.673 43.4763L247.359 48.6165C246.737 49.358 246.442 50.0866 246.473 50.8022C246.514 51.5065 246.855 52.1274 247.495 52.6647C248.147 53.2115 248.823 53.4439 249.524 53.3617C250.234 53.2684 250.9 52.8509 251.522 52.1094L255.835 46.9692L258.212 48.9631Z" fill="white"/>
<path d="M262.568 70.9656C261.927 70.2016 261.486 69.4031 261.247 68.5701C261.019 67.7278 260.99 66.9288 261.16 66.1733C261.34 65.4291 261.702 64.7997 262.247 64.2852L264.24 66.6615C263.919 67.0081 263.767 67.4321 263.786 67.9334C263.814 68.446 264.021 68.9326 264.407 69.3932C264.785 69.8426 265.167 70.1155 265.554 70.2118C265.95 70.3194 266.289 70.2554 266.57 70.0197C266.873 69.7651 266.966 69.4193 266.848 68.9821C266.751 68.5468 266.509 67.9166 266.124 67.0917C265.708 66.2537 265.401 65.5345 265.204 64.9343C265.016 64.3453 264.97 63.7323 265.068 63.0954C265.175 62.4697 265.543 61.8928 266.172 61.3649C266.689 60.9312 267.283 60.6813 267.955 60.6152C268.637 60.5603 269.332 60.7044 270.041 61.0476C270.76 61.4019 271.435 61.9555 272.066 62.7083C273 63.8206 273.464 64.9438 273.458 66.0781C273.464 67.2029 273.023 68.195 272.136 69.0543L270.241 66.796C270.583 66.4512 270.743 66.0488 270.721 65.5888C270.72 65.1306 270.526 64.6712 270.139 64.2105C269.781 63.7836 269.424 63.5181 269.069 63.4142C268.723 63.3215 268.41 63.3929 268.129 63.6286C267.814 63.8926 267.705 64.2526 267.8 64.7086C267.907 65.1552 268.154 65.7806 268.541 66.5849C268.939 67.4004 269.231 68.1027 269.419 68.6917C269.607 69.2807 269.642 69.8928 269.524 70.5279C269.426 71.1649 269.074 71.7482 268.465 72.278C267.926 72.7305 267.315 72.9842 266.634 73.0391C265.962 73.1052 265.266 72.9611 264.548 72.6067C263.85 72.2542 263.19 71.7071 262.568 70.9656Z" fill="white"/>
<path d="M289.017 84.1853C288.746 83.7153 288.665 83.2372 288.773 82.751C288.902 82.2702 289.189 81.9014 289.634 81.6447C290.078 81.3881 290.534 81.3278 291.003 81.464C291.491 81.6055 291.87 81.9113 292.142 82.3813C292.413 82.8512 292.484 83.3266 292.356 83.8075C292.247 84.2937 291.97 84.6651 291.526 84.9218C291.081 85.1784 290.615 85.236 290.126 85.0945C289.658 84.9583 289.289 84.6552 289.017 84.1853ZM288.519 86.2259L277.964 92.3199L276.424 89.6525L286.979 83.5585L288.519 86.2259Z" fill="white"/>
<path d="M286.607 110.792C286.206 109.69 286.086 108.61 286.247 107.552C286.422 106.489 286.865 105.54 287.575 104.704C288.29 103.882 289.234 103.257 290.405 102.831C291.577 102.405 292.703 102.283 293.785 102.467C294.871 102.665 295.819 103.124 296.627 103.844C297.449 104.559 298.061 105.468 298.462 106.571C298.864 107.673 298.979 108.763 298.809 109.839C298.653 110.911 298.22 111.865 297.509 112.701C296.804 113.55 295.866 114.188 294.694 114.615C293.523 115.041 292.391 115.149 291.3 114.937C290.213 114.74 289.257 114.276 288.429 113.547C287.621 112.827 287.013 111.909 286.607 110.792ZM289.129 109.874C289.32 110.398 289.622 110.842 290.036 111.207C290.468 111.58 290.989 111.812 291.6 111.902C292.21 111.992 292.88 111.904 293.611 111.638C294.7 111.242 295.428 110.649 295.796 109.859C296.183 109.078 296.226 108.274 295.925 107.448C295.624 106.621 295.075 106.032 294.276 105.683C293.497 105.343 292.563 105.37 291.474 105.767C290.385 106.163 289.642 106.738 289.245 107.491C288.867 108.253 288.828 109.047 289.129 109.874Z" fill="white"/>
<path d="M305.956 133.359C306.208 134.789 305.957 136.025 305.202 137.067C304.462 138.106 303.283 138.768 301.665 139.053L294.624 140.294L294.089 137.261L300.719 136.092C301.672 135.924 302.359 135.557 302.781 134.991C303.217 134.423 303.362 133.727 303.217 132.904C303.069 132.066 302.692 131.448 302.086 131.048C301.496 130.661 300.725 130.551 299.771 130.719L293.142 131.888L292.607 128.855L304.61 126.738L305.144 129.772L303.649 130.035C304.241 130.348 304.736 130.789 305.134 131.36C305.549 131.942 305.823 132.608 305.956 133.359Z" fill="white"/>
<path d="M295.802 157.724C295.802 156.727 295.978 155.832 296.33 155.04C296.697 154.248 297.188 153.617 297.804 153.148C298.42 152.693 299.102 152.444 299.85 152.4L299.85 155.502C299.381 155.561 298.992 155.788 298.684 156.184C298.376 156.595 298.222 157.101 298.222 157.702C298.222 158.289 298.339 158.743 298.574 159.066C298.809 159.403 299.109 159.572 299.476 159.572C299.872 159.572 300.165 159.367 300.356 158.956C300.561 158.56 300.781 157.922 301.016 157.042C301.236 156.133 301.463 155.385 301.698 154.798C301.933 154.226 302.292 153.727 302.776 153.302C303.26 152.891 303.913 152.686 304.734 152.686C305.409 152.686 306.025 152.877 306.582 153.258C307.139 153.654 307.579 154.211 307.902 154.93C308.225 155.663 308.386 156.521 308.386 157.504C308.386 158.956 308.019 160.115 307.286 160.98C306.567 161.845 305.592 162.322 304.36 162.41L304.36 159.462C304.844 159.418 305.225 159.213 305.504 158.846C305.797 158.494 305.944 158.017 305.944 157.416C305.944 156.859 305.841 156.426 305.636 156.118C305.431 155.825 305.145 155.678 304.778 155.678C304.367 155.678 304.052 155.883 303.832 156.294C303.627 156.705 303.414 157.343 303.194 158.208C302.974 159.088 302.747 159.814 302.512 160.386C302.277 160.958 301.911 161.449 301.412 161.86C300.928 162.285 300.283 162.505 299.476 162.52C298.772 162.52 298.141 162.322 297.584 161.926C297.027 161.545 296.587 160.987 296.264 160.254C295.956 159.535 295.802 158.692 295.802 157.724Z" fill="white"/>
</svg>
