<svg width="174" height="26" viewBox="0 0 174 26" fill="none" xmlns="http://www.w3.org/2000/svg">
<path fill-rule="evenodd" clip-rule="evenodd" d="M13.02 0.000244141C12.6508 0.000244141 12.2894 0.108015 11.9783 0.310836C11.6711 0.511065 11.4258 0.795677 11.2703 1.13181L8.31664 7.2165C8.31083 7.22846 8.30527 7.24053 8.29997 7.25274C8.29865 7.25576 8.29656 7.2584 8.29394 7.26035C8.29132 7.26231 8.28825 7.26354 8.28501 7.2639C8.27368 7.26518 8.26237 7.26668 8.25109 7.26838L1.74764 8.25151C1.38819 8.28719 1.04541 8.42482 0.758312 8.64922C0.461245 8.88142 0.236533 9.19652 0.111397 9.55637C-0.0137394 9.91622 -0.0339314 10.3054 0.0532675 10.6767C0.140129 11.0466 0.32984 11.383 0.599546 11.6454L5.36009 16.3324L5.37094 16.3429C5.37773 16.3494 5.38285 16.3575 5.38579 16.3665C5.38873 16.3755 5.38942 16.3851 5.38778 16.3944L5.38674 16.4007L4.25233 23.1751L4.25205 23.1768C4.18972 23.5439 4.22946 23.9215 4.36679 24.2667C4.50429 24.6126 4.73417 24.9119 5.03023 25.131C5.32631 25.3499 5.67667 25.4798 6.04148 25.5056C6.40555 25.5314 6.76943 25.4526 7.09185 25.2783L7.0938 25.2772L12.9533 22.1172C12.9743 22.1079 12.9971 22.103 13.02 22.103C13.043 22.103 13.0657 22.1079 13.0867 22.1172L18.9462 25.2772L18.9473 25.2778C19.2699 25.4526 19.6342 25.5316 19.9985 25.5056C20.3633 25.4798 20.7136 25.3499 21.0098 25.131C21.3058 24.9119 21.5358 24.6126 21.6733 24.2667C21.8106 23.9215 21.8502 23.5441 21.7881 23.1771L21.7877 23.1751L20.6534 16.4006L20.6522 16.3944C20.6506 16.3851 20.6513 16.3755 20.6543 16.3665C20.6571 16.3575 20.6623 16.3494 20.669 16.3429L20.68 16.3324L25.4406 11.6454C25.7101 11.3829 25.8999 11.0466 25.9868 10.6767C26.0739 10.3054 26.0538 9.91622 25.9286 9.55637C25.8035 9.19652 25.5788 8.88142 25.2817 8.64922C24.9946 8.42482 24.6519 8.28719 24.2925 8.25151L17.7889 7.26838C17.7777 7.26668 17.7663 7.26518 17.755 7.2639C17.7518 7.26354 17.7487 7.26231 17.7461 7.26035C17.7434 7.2584 17.7414 7.25576 17.7401 7.25274C17.7348 7.24053 17.7292 7.22846 17.7234 7.2165L14.7697 1.13178C14.6142 0.795661 14.3689 0.511059 14.0618 0.310836C13.7506 0.108015 13.3892 0.000244141 13.02 0.000244141Z" fill="#EEB07F"/>
<path fill-rule="evenodd" clip-rule="evenodd" d="M49.9199 0C49.5507 0 49.1893 0.107771 48.8782 0.310592C48.571 0.510821 48.3257 0.795432 48.1702 1.13156L45.2165 7.21626C45.2107 7.22822 45.2052 7.24029 45.1999 7.2525C45.1985 7.25552 45.1965 7.25815 45.1938 7.26011C45.1912 7.26206 45.1881 7.2633 45.1849 7.26366C45.1736 7.26493 45.1623 7.26643 45.151 7.26814L38.6475 8.25127C38.2881 8.28694 37.9453 8.42458 37.6582 8.64898C37.3611 8.88118 37.1364 9.19628 37.0113 9.55613C36.8862 9.91598 36.866 10.3051 36.9532 10.6765C37.04 11.0464 37.2297 11.3827 37.4994 11.6452L42.26 16.3321L42.2708 16.3426C42.2776 16.3491 42.2828 16.3572 42.2857 16.3662C42.2886 16.3752 42.2893 16.3849 42.2877 16.3942L42.2866 16.4004L41.1522 23.1748L41.152 23.1765C41.0896 23.5437 41.1294 23.9213 41.2667 24.2664C41.4042 24.6123 41.6341 24.9117 41.9301 25.1308C42.2262 25.3497 42.5766 25.4795 42.9414 25.5053C43.3055 25.5312 43.6693 25.4524 43.9917 25.2781L43.9937 25.277L49.8532 22.117C49.8742 22.1077 49.897 22.1028 49.9199 22.1028C49.9429 22.1028 49.9656 22.1077 49.9866 22.117L55.8461 25.277L55.8472 25.2775C56.1698 25.4524 56.5341 25.5314 56.8984 25.5053C57.2632 25.4795 57.6135 25.3497 57.9097 25.1308C58.2057 24.9117 58.4357 24.6123 58.5732 24.2664C58.7105 23.9213 58.7501 23.5439 58.688 23.1769L58.6876 23.1748L57.5533 16.4004L57.5521 16.3942C57.5505 16.3849 57.5512 16.3752 57.5542 16.3662C57.557 16.3572 57.5622 16.3491 57.5689 16.3426L57.5799 16.3321L62.3405 11.6451C62.61 11.3827 62.7998 11.0463 62.8867 10.6765C62.9738 10.3051 62.9537 9.91598 62.8285 9.55613C62.7034 9.19628 62.4787 8.88118 62.1816 8.64898C61.8945 8.42458 61.5518 8.28694 61.1924 8.25127L54.6888 7.26814C54.6776 7.26643 54.6662 7.26493 54.6549 7.26366C54.6517 7.2633 54.6486 7.26206 54.646 7.26011C54.6433 7.25815 54.6413 7.25552 54.64 7.2525C54.6347 7.24029 54.6291 7.22822 54.6233 7.21626L51.6696 1.13154C51.5141 0.795417 51.2688 0.510815 50.9617 0.310592C50.6506 0.107771 50.2891 0 49.9199 0Z" fill="#EEB07F"/>
<path fill-rule="evenodd" clip-rule="evenodd" d="M86.8198 0C86.4506 0 86.0892 0.107771 85.7781 0.310592C85.4709 0.510821 85.2256 0.795432 85.0701 1.13156L82.1164 7.21626C82.1106 7.22822 82.1051 7.24029 82.0998 7.2525C82.0985 7.25552 82.0964 7.25815 82.0937 7.26011C82.0911 7.26206 82.0881 7.2633 82.0848 7.26366C82.0735 7.26493 82.0622 7.26643 82.0509 7.26814L75.5474 8.25127C75.188 8.28694 74.8452 8.42458 74.5581 8.64898C74.261 8.88118 74.0363 9.19628 73.9112 9.55613C73.7861 9.91598 73.7659 10.3051 73.8531 10.6765C73.9399 11.0464 74.1296 11.3827 74.3994 11.6452L79.1599 16.3321L79.1707 16.3426C79.1775 16.3491 79.1827 16.3572 79.1856 16.3662C79.1885 16.3752 79.1892 16.3849 79.1876 16.3942L79.1865 16.4004L78.0521 23.1748L78.0519 23.1765C77.9895 23.5437 78.0293 23.9213 78.1666 24.2664C78.3041 24.6123 78.534 24.9117 78.83 25.1308C79.1261 25.3497 79.4765 25.4795 79.8413 25.5053C80.2054 25.5312 80.5692 25.4524 80.8917 25.2781L80.8936 25.277L86.7531 22.117C86.7741 22.1077 86.7969 22.1028 86.8198 22.1028C86.8428 22.1028 86.8655 22.1077 86.8865 22.117L92.746 25.277L92.7471 25.2775C93.0697 25.4524 93.434 25.5314 93.7983 25.5053C94.1631 25.4795 94.5134 25.3497 94.8096 25.1308C95.1056 24.9117 95.3356 24.6123 95.4731 24.2664C95.6104 23.9213 95.65 23.5439 95.5879 23.1769L95.5875 23.1748L94.4532 16.4004L94.4521 16.3942C94.4504 16.3849 94.4511 16.3752 94.4541 16.3662C94.4569 16.3572 94.4621 16.3491 94.4688 16.3426L94.4798 16.3321L99.2404 11.6451C99.5099 11.3827 99.6997 11.0463 99.7866 10.6765C99.8737 10.3051 99.8536 9.91598 99.7284 9.55613C99.6033 9.19628 99.3786 8.88118 99.0815 8.64898C98.7944 8.42458 98.4517 8.28694 98.0923 8.25127L91.5887 7.26814C91.5775 7.26643 91.5662 7.26493 91.5548 7.26366C91.5516 7.2633 91.5485 7.26206 91.5459 7.26011C91.5432 7.25815 91.5412 7.25552 91.5399 7.2525C91.5346 7.24029 91.529 7.22822 91.5232 7.21626L88.5695 1.13154C88.4141 0.795417 88.1687 0.510815 87.8616 0.310592C87.5505 0.107771 87.189 0 86.8198 0Z" fill="#EEB07F"/>
<path fill-rule="evenodd" clip-rule="evenodd" d="M123.719 0C123.35 0 122.989 0.107771 122.677 0.310592C122.37 0.510821 122.125 0.795432 121.969 1.13156L119.016 7.21626C119.01 7.22822 119.004 7.24029 118.999 7.2525C118.998 7.25552 118.996 7.25815 118.993 7.26011C118.991 7.26206 118.987 7.2633 118.984 7.26366C118.973 7.26493 118.962 7.26643 118.95 7.26814L112.447 8.25127C112.087 8.28694 111.745 8.42458 111.458 8.64898C111.16 8.88118 110.936 9.19628 110.811 9.55613C110.685 9.91598 110.665 10.3051 110.752 10.6765C110.839 11.0464 111.029 11.3827 111.299 11.6452L116.059 16.3321L116.07 16.3426C116.077 16.3491 116.082 16.3572 116.085 16.3662C116.088 16.3752 116.089 16.3849 116.087 16.3942L116.086 16.4004L114.952 23.1748L114.951 23.1765C114.889 23.5437 114.929 23.9213 115.066 24.2664C115.204 24.6123 115.433 24.9117 115.729 25.1308C116.026 25.3497 116.376 25.4795 116.741 25.5053C117.105 25.5312 117.469 25.4524 117.791 25.2781L117.793 25.277L123.653 22.117C123.674 22.1077 123.696 22.1028 123.719 22.1028C123.742 22.1028 123.765 22.1077 123.786 22.117L129.645 25.277L129.647 25.2775C129.969 25.4524 130.333 25.5314 130.698 25.5053C131.063 25.4795 131.413 25.3497 131.709 25.1308C132.005 24.9117 132.235 24.6123 132.372 24.2664C132.51 23.9213 132.549 23.5439 132.487 23.1769L132.487 23.1748L131.353 16.4004L131.351 16.3942C131.35 16.3849 131.351 16.3752 131.354 16.3662C131.356 16.3572 131.362 16.3491 131.368 16.3426L131.379 16.3321L136.14 11.6451C136.409 11.3827 136.599 11.0463 136.686 10.6765C136.773 10.3051 136.753 9.91598 136.628 9.55613C136.503 9.19628 136.278 8.88118 135.981 8.64898C135.694 8.42458 135.351 8.28694 134.992 8.25127L128.488 7.26814C128.477 7.26643 128.466 7.26493 128.454 7.26366C128.451 7.2633 128.448 7.26206 128.445 7.26011C128.443 7.25815 128.441 7.25552 128.439 7.2525C128.434 7.24029 128.428 7.22822 128.423 7.21626L125.469 1.13154C125.313 0.795417 125.068 0.510815 124.761 0.310592C124.45 0.107771 124.088 0 123.719 0Z" fill="#EEB07F"/>
<path fill-rule="evenodd" clip-rule="evenodd" d="M160.618 0C160.248 0 159.887 0.107771 159.576 0.310592C159.269 0.510821 159.023 0.795432 158.868 1.13156L155.914 7.21626C155.908 7.22822 155.903 7.24029 155.898 7.2525C155.896 7.25552 155.894 7.25815 155.892 7.26011C155.889 7.26206 155.886 7.2633 155.883 7.26366C155.871 7.26493 155.86 7.26643 155.849 7.26814L149.345 8.25127C148.986 8.28694 148.643 8.42458 148.356 8.64898C148.059 8.88118 147.834 9.19628 147.709 9.55613C147.584 9.91598 147.564 10.3051 147.651 10.6765C147.738 11.0464 147.927 11.3827 148.197 11.6452L152.958 16.3321L152.969 16.3426C152.975 16.3491 152.981 16.3572 152.983 16.3662C152.986 16.3752 152.987 16.3849 152.985 16.3942L152.984 16.4004L151.85 23.1748L151.85 23.1765C151.787 23.5437 151.827 23.9213 151.964 24.2664C152.102 24.6123 152.332 24.9117 152.628 25.1308C152.924 25.3497 153.274 25.4795 153.639 25.5053C154.003 25.5312 154.367 25.4524 154.69 25.2781L154.691 25.277L160.551 22.117C160.572 22.1077 160.595 22.1028 160.618 22.1028C160.641 22.1028 160.663 22.1077 160.684 22.117L166.544 25.277L166.545 25.2775C166.868 25.4524 167.232 25.5314 167.596 25.5053C167.961 25.4795 168.311 25.3497 168.607 25.1308C168.903 24.9117 169.133 24.6123 169.271 24.2664C169.408 23.9213 169.448 23.5439 169.386 23.1769L169.385 23.1748L168.251 16.4004L168.25 16.3942C168.248 16.3849 168.249 16.3752 168.252 16.3662C168.255 16.3572 168.26 16.3491 168.267 16.3426L168.278 16.3321L173.038 11.6451C173.308 11.3827 173.498 11.0463 173.584 10.6765C173.672 10.3051 173.651 9.91598 173.526 9.55613C173.401 9.19628 173.176 8.88118 172.879 8.64898C172.592 8.42458 172.25 8.28694 171.89 8.25127L165.387 7.26814C165.375 7.26643 165.364 7.26493 165.353 7.26366C165.349 7.2633 165.346 7.26206 165.344 7.26011C165.341 7.25815 165.339 7.25552 165.338 7.2525C165.332 7.24029 165.327 7.22822 165.321 7.21626L162.367 1.13154C162.212 0.795417 161.967 0.510815 161.659 0.310592C161.348 0.107771 160.987 0 160.618 0Z" fill="#EEB07F"/>
</svg>
