<svg width="17" height="15" viewBox="0 0 17 15" fill="none" xmlns="http://www.w3.org/2000/svg">
<path d="M8.44707 13.8859C8.50768 13.8859 8.57739 13.8708 8.65615 13.8405C8.73494 13.8102 8.79858 13.7708 8.84705 13.7223L14.974 7.57714C15.1316 7.41955 15.2498 7.2408 15.3286 7.0408C15.4074 6.84081 15.4467 6.63777 15.4467 6.43174C15.4467 6.22568 15.4074 6.01962 15.3286 5.81359C15.2498 5.60753 15.1316 5.42572 14.974 5.26816L11.7015 1.99558C11.5439 1.83801 11.3621 1.71983 11.156 1.64105C10.95 1.56226 10.7439 1.52287 10.5379 1.52287C10.3319 1.52287 10.1288 1.56226 9.92881 1.64105C9.72882 1.71983 9.55007 1.83801 9.39248 1.99558L9.06522 2.32284L10.5379 3.81368C10.6955 3.98335 10.8348 4.18032 10.956 4.40456C11.0773 4.62877 11.1378 4.87421 11.1378 5.14089C11.1378 5.60145 10.9591 6.00751 10.6015 6.35902C10.244 6.71049 9.83489 6.88627 9.3743 6.88627C9.07129 6.88627 8.81978 6.84081 8.61979 6.74991C8.4198 6.659 8.23497 6.52868 8.06527 6.35902L6.73806 5.03181L3.4473 8.32256C3.38671 8.38314 3.34429 8.44678 3.32004 8.51346C3.2958 8.58012 3.28368 8.64982 3.28368 8.72254C3.28368 8.8801 3.3352 9.01039 3.43822 9.11344C3.54126 9.21645 3.67154 9.26797 3.8291 9.26797C3.90182 9.26797 3.97153 9.24979 4.03818 9.21343C4.10487 9.17707 4.16243 9.13463 4.2109 9.08616L6.33807 6.95899C6.44716 6.8499 6.57443 6.79536 6.71987 6.79536C6.86532 6.79536 6.99259 6.8499 7.10168 6.95899C7.21076 7.06808 7.2653 7.19534 7.2653 7.34079C7.2653 7.48624 7.21076 7.61351 7.10168 7.72259L4.99268 9.83158C4.9321 9.89216 4.88967 9.95885 4.86542 10.0316C4.8412 10.1043 4.82905 10.177 4.82905 10.2497C4.82905 10.3952 4.8836 10.5225 4.99268 10.6315C5.10177 10.7406 5.22903 10.7952 5.37448 10.7952C5.44721 10.7952 5.51691 10.78 5.58356 10.7497C5.65025 10.7194 5.70781 10.68 5.75628 10.6315L7.88346 8.50437C7.99254 8.39529 8.11981 8.34074 8.26526 8.34074C8.4107 8.34074 8.53797 8.39529 8.64706 8.50437C8.75614 8.61346 8.81069 8.74073 8.81069 8.88617C8.81069 9.03162 8.75614 9.15889 8.64706 9.26797L6.53806 11.377C6.48959 11.4254 6.45021 11.4891 6.41989 11.5679C6.3896 11.6466 6.37443 11.7224 6.37443 11.7951C6.37443 11.9406 6.42898 12.0678 6.53806 12.1769C6.64715 12.286 6.77442 12.3406 6.91986 12.3406C6.99259 12.3406 7.05928 12.3284 7.11986 12.3042C7.18047 12.2799 7.24109 12.2375 7.30167 12.1769L9.42884 10.0498C9.53792 9.94067 9.66519 9.88613 9.81064 9.88613C9.95609 9.88613 10.0834 9.94067 10.1924 10.0498C10.3015 10.1588 10.3561 10.2861 10.3561 10.4316C10.3561 10.577 10.3015 10.7043 10.1924 10.8134L8.06527 12.9405C8.00469 13.0011 7.96225 13.0678 7.938 13.1405C7.91378 13.2132 7.90164 13.2799 7.90164 13.3405C7.90164 13.5102 7.95014 13.6435 8.04709 13.7405C8.14406 13.8374 8.2774 13.8859 8.44707 13.8859ZM8.44707 14.9768C8.04709 14.9768 7.68954 14.8283 7.37439 14.5314C7.05928 14.2344 6.87139 13.8678 6.81078 13.4314C6.39869 13.3708 6.05325 13.2011 5.77446 12.9223C5.49571 12.6436 5.32601 12.2981 5.2654 11.886C4.85331 11.8254 4.51089 11.6527 4.23817 11.3679C3.96546 11.083 3.79881 10.7406 3.73819 10.3407C3.28974 10.28 2.92006 10.0982 2.62917 9.79522C2.33827 9.49218 2.19282 9.12856 2.19282 8.70436C2.19282 8.4983 2.23221 8.29224 2.311 8.08621C2.38979 7.88015 2.50796 7.69834 2.66553 7.54078L5.97445 4.23184C6.18052 4.02578 6.43505 3.92277 6.73806 3.92277C7.0411 3.92277 7.29563 4.02578 7.50166 4.23184L8.73796 5.46815C8.83494 5.56509 8.94101 5.64087 9.05613 5.69541C9.17129 5.74996 9.28339 5.77723 9.39248 5.77723C9.55007 5.77723 9.69854 5.70752 9.83791 5.56815C9.97732 5.42873 10.047 5.28027 10.047 5.12271C10.047 5.04999 10.0258 4.96817 9.98336 4.87727C9.94096 4.78636 9.87125 4.6924 9.77428 4.59546L7.1744 1.99558C7.01684 1.83801 6.83503 1.71983 6.62897 1.64105C6.42294 1.56226 6.21688 1.52287 6.01082 1.52287C5.80479 1.52287 5.60174 1.56226 5.40175 1.64105C5.20176 1.71983 5.02301 1.83801 4.86542 1.99558L2.10192 4.75909C1.8595 5.00148 1.71103 5.29543 1.65648 5.64087C1.60194 5.98631 1.64133 6.31658 1.77466 6.63173C1.83527 6.76504 1.83527 6.90139 1.77466 7.0408C1.71406 7.18018 1.61709 7.28018 1.48377 7.34079C1.35044 7.40137 1.21105 7.40137 1.0656 7.34079C0.920155 7.28018 0.817131 7.1832 0.756527 7.0499C0.550474 6.50447 0.489874 5.96205 0.574717 5.4227C0.65956 4.88331 0.914094 4.40151 1.33832 3.97731L4.08363 1.23198C4.35031 0.965324 4.65332 0.768362 4.99268 0.641095C5.33208 0.513829 5.67752 0.450195 6.029 0.450195C6.38051 0.450195 6.72293 0.513829 7.05622 0.641095C7.38955 0.768362 7.68954 0.965324 7.95618 1.23198L8.28344 1.55923L8.61069 1.23198C8.87737 0.965324 9.18038 0.768362 9.51974 0.641095C9.85915 0.513829 10.2046 0.450195 10.5561 0.450195C10.9076 0.450195 11.25 0.513829 11.5833 0.641095C11.9166 0.768362 12.2166 0.965324 12.4832 1.23198L15.7376 4.48638C16.0043 4.75302 16.2043 5.05602 16.3376 5.39543C16.4709 5.73479 16.5376 6.08023 16.5376 6.43174C16.5376 6.78322 16.4709 7.12564 16.3376 7.45897C16.2043 7.79226 16.0043 8.09225 15.7376 8.35893L9.61065 14.4859C9.45309 14.6435 9.2743 14.7647 9.07431 14.8495C8.87432 14.9344 8.66524 14.9768 8.44707 14.9768Z" fill="black"/>
</svg>
