<svg width="17" height="12" viewBox="0 0 17 12" fill="none" xmlns="http://www.w3.org/2000/svg">
<path d="M2.86207 1.80065C2.8742 1.29734 3.15889 0.8469 3.65901 0.788957C3.8029 0.772309 3.96835 0.761719 4.15658 0.761719C4.3448 0.761719 4.51025 0.772309 4.65414 0.788957C5.15425 0.8469 5.43894 1.29734 5.45109 1.80065C5.46892 2.54122 5.48991 3.81581 5.48991 5.7141C5.48991 7.61239 5.46892 8.88697 5.45109 9.62755C5.43894 10.1309 5.15425 10.5813 4.65414 10.6392C4.51025 10.6559 4.3448 10.6665 4.15658 10.6665C3.96835 10.6665 3.8029 10.6559 3.65901 10.6392C3.15889 10.5813 2.8742 10.1309 2.86207 9.62755C2.84423 8.88697 2.82324 7.61239 2.82324 5.7141C2.82324 3.81581 2.84423 2.54122 2.86207 1.80065Z" stroke="black" stroke-width="0.885106" stroke-linecap="round" stroke-linejoin="round"/>
<path d="M14.2133 1.80065C14.2011 1.29734 13.9165 0.8469 13.4163 0.788957C13.2725 0.772309 13.107 0.761719 12.9188 0.761719C12.7306 0.761719 12.5651 0.772309 12.4212 0.788957C11.9211 0.8469 11.6364 1.29734 11.6243 1.80065C11.6064 2.54122 11.5854 3.81581 11.5854 5.7141C11.5854 7.61239 11.6064 8.88697 11.6243 9.62755C11.6364 10.1309 11.9211 10.5813 12.4212 10.6392C12.5651 10.6559 12.7306 10.6665 12.9188 10.6665C13.107 10.6665 13.2725 10.6559 13.4163 10.6392C13.9165 10.5813 14.2011 10.1309 14.2133 9.62755C14.2311 8.88697 14.2521 7.61239 14.2521 5.7141C14.2521 3.81581 14.2311 2.54122 14.2133 1.80065Z" stroke="black" stroke-width="0.885106" stroke-linecap="round" stroke-linejoin="round"/>
<path d="M5.48682 6.85062C6.25223 6.85477 7.13958 6.85747 8.15615 6.85747C9.52986 6.85747 10.6677 6.85256 11.5873 6.8457" stroke="black" stroke-width="0.885106" stroke-linecap="round" stroke-linejoin="round"/>
<path d="M11.5873 4.58306C10.6677 4.5762 9.52986 4.57129 8.15615 4.57129C7.13958 4.57129 6.25219 4.57399 5.48682 4.57818" stroke="black" stroke-width="0.885106" stroke-linecap="round" stroke-linejoin="round"/>
<path d="M0.558642 3.73371C0.572363 3.16602 0.933293 2.68685 1.50087 2.6688C1.55781 2.66701 1.61765 2.66602 1.68045 2.66602C1.74325 2.66602 1.80309 2.66701 1.86004 2.6688C2.42761 2.68685 2.78854 3.16602 2.80226 3.73371C2.81353 4.19984 2.82331 4.85245 2.82331 5.71363C2.82331 6.57482 2.81353 7.22743 2.80227 7.69356C2.78855 8.26125 2.42762 8.74042 1.86004 8.75847C1.8031 8.76026 1.74325 8.76125 1.68045 8.76125C1.61765 8.76125 1.55781 8.76026 1.50087 8.75847C0.933293 8.74042 0.572363 8.26125 0.558642 7.69356C0.547377 7.22743 0.537598 6.57482 0.537598 5.71363C0.537598 4.85245 0.547377 4.19984 0.558642 3.73371Z" stroke="black" stroke-width="0.885106" stroke-linecap="round" stroke-linejoin="round"/>
<path d="M16.5162 3.73371C16.5024 3.16602 16.1415 2.68685 15.5739 2.6688C15.517 2.66701 15.4571 2.66602 15.3943 2.66602C15.3315 2.66602 15.2717 2.66701 15.2147 2.6688C14.6472 2.68685 14.2862 3.16602 14.2725 3.73371C14.2613 4.19984 14.2515 4.85245 14.2515 5.71363C14.2515 6.57482 14.2613 7.22743 14.2725 7.69356C14.2862 8.26125 14.6472 8.74042 15.2147 8.75847C15.2717 8.76026 15.3315 8.76125 15.3943 8.76125C15.4571 8.76125 15.517 8.76026 15.5739 8.75847C16.1415 8.74042 16.5024 8.26125 16.5162 7.69356C16.5274 7.22743 16.5372 6.57482 16.5372 5.71363C16.5372 4.85245 16.5274 4.19984 16.5162 3.73371Z" stroke="black" stroke-width="0.885106" stroke-linecap="round" stroke-linejoin="round"/>
</svg>
