<svg width="320" height="176" viewBox="0 0 320 176" fill="none" xmlns="http://www.w3.org/2000/svg">
<path d="M8.6439 152.996L23.9999 157.286L23.9999 160.916L13.0659 163.798L24 166.812L24.022 170.42L8.644 174.556L8.64398 171.256L20.568 168.55L8.64396 165.426L8.64394 161.994L20.5019 159.046L8.64392 156.318L8.6439 152.996Z" fill="white"/>
<path d="M19.7817 135.376C20.2168 135.442 20.604 135.53 20.9433 135.64L19.6154 144.451C20.4965 144.509 21.224 144.307 21.798 143.845C22.372 143.383 22.718 142.76 22.836 141.977C23.0065 140.846 22.642 139.968 21.7424 139.343L22.2375 136.058C23.3453 136.581 24.2019 137.392 24.8074 138.492C25.3984 139.59 25.5857 140.856 25.3693 142.292C25.1945 143.452 24.7833 144.458 24.1358 145.31C23.476 146.145 22.6354 146.752 21.614 147.132C20.5948 147.498 19.4688 147.588 18.2361 147.402C16.9888 147.214 15.9321 146.795 15.066 146.145C14.1998 145.496 13.5817 144.676 13.2119 143.686C12.842 142.695 12.7466 141.606 12.9259 140.417C13.0986 139.271 13.4992 138.286 14.1278 137.461C14.7587 136.621 15.5681 136.024 16.5561 135.669C17.5317 135.296 18.607 135.199 19.7817 135.376ZM18.4361 138.399C17.6507 138.296 16.9845 138.485 16.4373 138.966C15.8757 139.445 15.5347 140.083 15.4145 140.881C15.3008 141.635 15.4367 142.308 15.8221 142.9C16.1952 143.475 16.7791 143.882 17.5737 144.121L18.4361 138.399Z" fill="white"/>
<path d="M14.5941 115L30.1509 119.798L29.243 122.742L13.6863 117.943L14.5941 115Z" fill="white"/>
<path d="M22.9607 93.8339L37.6285 100.897L36.2921 103.672L21.6244 96.6089L22.9607 93.8339Z" fill="white"/>
<path d="M36.9135 77.3978C37.7315 76.1981 38.7742 75.4889 40.0416 75.2702C41.2969 75.0432 42.6032 75.3924 43.9604 76.3178L49.868 80.3455L48.133 82.8903L42.5708 79.098C41.771 78.5528 41.0227 78.3355 40.3259 78.4462C39.617 78.5487 39.0271 78.9453 38.5561 79.636C38.0769 80.3389 37.915 81.045 38.0704 81.7545C38.2219 82.4435 38.6975 83.0607 39.4973 83.606L45.0596 87.3983L43.3246 89.9431L33.2543 83.0774L34.9893 80.5326L36.2436 81.3877C36.0387 80.7509 35.9926 80.0894 36.1055 79.4031C36.2146 78.6964 36.4839 78.028 36.9135 77.3978Z" fill="white"/>
<path d="M58.1509 60.7073C58.4734 61.0066 58.7437 61.2974 58.9619 61.5799L52.9015 68.1114C53.5965 68.6561 54.3113 68.8992 55.046 68.8406C55.7806 68.782 56.4173 68.4624 56.956 67.8818C57.7341 67.0432 57.9276 66.1123 57.5365 65.0891L59.796 62.6539C60.4167 63.71 60.6674 64.863 60.5481 66.1128C60.4181 67.3527 59.8593 68.5048 58.8716 69.5692C58.0736 70.4293 57.1672 71.0289 56.1524 71.3678C55.1369 71.686 54.1001 71.7144 53.0421 71.453C51.9942 71.1809 51.0132 70.6209 50.0993 69.7729C49.1747 68.915 48.5376 67.9737 48.1879 66.949C47.8382 65.9242 47.7894 64.8986 48.0416 63.8721C48.2938 62.8456 48.8289 61.8916 49.6469 61.0099C50.435 60.1606 51.3211 59.5722 52.3051 59.2448C53.2991 58.9066 54.3044 58.869 55.3209 59.1319C56.3367 59.3741 57.28 59.8993 58.1509 60.7073ZM55.336 62.4472C54.7455 61.9192 54.0886 61.6999 53.3655 61.7893C52.6316 61.8686 51.9903 62.204 51.4417 62.7953C50.9229 63.3544 50.656 63.987 50.6409 64.6933C50.6251 65.3789 50.8783 66.044 51.4005 66.6886L55.336 62.4472Z" fill="white"/>
<path d="M73.5494 55.4813C72.7697 56.1031 71.9605 56.5233 71.1218 56.7419C70.274 56.9491 69.4745 56.9582 68.7235 56.7692C67.984 56.571 67.3638 56.1933 66.8631 55.6359L69.2883 53.7019C69.6268 54.0322 70.0469 54.1943 70.5485 54.1882C71.0616 54.173 71.5532 53.9779 72.0234 53.603C72.482 53.2372 72.7644 52.862 72.8703 52.4773C72.9877 52.0835 72.9322 51.7433 72.7035 51.4566C72.4566 51.147 72.1132 51.0457 71.6733 51.1527C71.2356 51.2391 70.5997 51.4649 69.7653 51.8301C68.9172 52.225 68.1907 52.5137 67.5857 52.696C66.9922 52.8691 66.3782 52.8991 65.7439 52.7859C65.1211 52.6635 64.5536 52.2813 64.0415 51.6391C63.6209 51.1117 63.3859 50.5112 63.3365 49.8377C63.2986 49.155 63.46 48.4635 63.8207 47.7632C64.1929 47.0537 64.7631 46.3926 65.5314 45.7799C66.6666 44.8746 67.8011 44.4389 68.9349 44.4727C70.0595 44.495 71.0403 44.9604 71.8772 45.8687L69.5724 47.7068C69.2362 47.3558 68.8379 47.1857 68.3775 47.1964C67.9194 47.1866 67.4553 47.3691 66.9852 47.744C66.5494 48.0915 66.2752 48.4415 66.1624 48.7941C66.0611 49.1375 66.1247 49.4526 66.3533 49.7393C66.6094 50.0603 66.9665 50.1788 67.4248 50.0948C67.8739 49.9993 68.5053 49.7678 69.319 49.4002C70.1442 49.0236 70.8535 48.7487 71.447 48.5755C72.0405 48.4023 72.6533 48.3826 73.2853 48.5165C73.9196 48.6297 74.494 48.9971 75.0084 49.6186C75.4473 50.169 75.6857 50.7855 75.7236 51.4682C75.773 52.1417 75.6116 52.8332 75.2394 53.5427C74.8696 54.2316 74.3062 54.8778 73.5494 55.4813Z" fill="white"/>
<path d="M90.1276 43.7684C89.2639 44.267 88.4011 44.5619 87.5392 44.6531C86.67 44.7316 85.8782 44.6214 85.1637 44.3226C84.4619 44.0164 83.905 43.5505 83.4929 42.9247L86.1793 41.3737C86.4648 41.7508 86.856 41.9737 87.3529 42.0425C87.8626 42.1039 88.3778 41.9842 88.8986 41.6836C89.4066 41.3902 89.7417 41.0613 89.9038 40.6967C90.0786 40.3248 90.0744 39.9801 89.891 39.6626C89.693 39.3196 89.3685 39.1683 88.9176 39.2085C88.4719 39.2287 87.8094 39.3571 86.93 39.5939C86.0325 39.858 85.271 40.0352 84.6456 40.1253C84.0329 40.2081 83.4214 40.1462 82.811 39.9397C82.2134 39.7259 81.7092 39.2633 81.2986 38.552C80.9612 37.9678 80.8184 37.339 80.8699 36.6656C80.9342 35.985 81.1969 35.3252 81.6579 34.6865C82.1317 34.0404 82.7941 33.4716 83.6451 32.9803C84.9025 32.2543 86.0893 31.9925 87.2054 32.1949C88.3141 32.3846 89.2146 32.991 89.9068 34.0139L87.3538 35.4879C87.0736 35.0908 86.7052 34.8632 86.2483 34.8052C85.7968 34.7272 85.3106 34.8385 84.7899 35.1391C84.3072 35.4178 83.9838 35.7231 83.8198 36.0549C83.6684 36.3794 83.6844 36.7004 83.8677 37.0179C84.0731 37.3736 84.4085 37.544 84.8742 37.5292C85.3325 37.5017 85.9914 37.3668 86.8508 37.1247C87.7229 36.8752 88.4653 36.7091 89.078 36.6263C89.6907 36.5436 90.2995 36.6154 90.9045 36.8419C91.5148 37.0484 92.028 37.4973 92.4441 38.1886C92.7961 38.7982 92.9399 39.4434 92.8757 40.1241C92.8241 40.7974 92.5614 41.4571 92.0877 42.1032C91.6193 42.7293 90.9659 43.2844 90.1276 43.7684Z" fill="white"/>
<path d="M132.428 27.0342L130.43 25.7976C129.327 27.3582 127.775 28.3669 125.773 28.8238C124.672 29.0751 123.657 29.1112 122.729 28.9319C121.811 28.7352 121.045 28.3458 120.431 27.7639C119.814 27.1677 119.401 26.412 119.192 25.4969C118.966 24.5103 119.043 23.5601 119.421 22.6464C119.799 21.7326 120.476 20.9087 121.452 20.1745C120.958 19.7907 120.577 19.404 120.307 19.0142C120.034 18.61 119.841 18.1578 119.727 17.6573C119.57 16.971 119.608 16.3153 119.842 15.6903C120.072 15.0511 120.48 14.4991 121.066 14.0344C121.666 13.5665 122.41 13.2313 123.296 13.0289C124.197 12.8233 125.008 12.8187 125.73 13.015C126.452 13.2113 127.035 13.5595 127.48 14.0597C127.926 14.5599 128.207 15.1652 128.324 15.8756L125.407 16.5414C125.313 16.0663 125.117 15.7349 124.819 15.5473C124.517 15.3454 124.159 15.2918 123.744 15.3864C123.344 15.4778 123.035 15.676 122.819 15.9811C122.614 16.2686 122.554 16.5983 122.639 16.9701C122.72 17.3275 122.909 17.6605 123.205 17.9691C123.498 18.2633 123.946 18.6123 124.55 19.0161L129.177 21.8865C129.199 21.8514 129.214 21.8179 129.221 21.786C129.229 21.7542 129.237 21.7223 129.245 21.6904L130.002 19.3738L133.134 18.6591L132.234 21.6399C132.076 22.2628 131.889 22.8621 131.674 23.4376L136.117 26.1922L132.428 27.0342ZM125.291 26.3162C126.463 26.0486 127.405 25.3973 128.117 24.3624L123.596 21.5582C122.349 22.4896 121.855 23.5201 122.112 24.6497C122.259 25.2932 122.626 25.7811 123.214 26.1134C123.798 26.4314 124.49 26.499 125.291 26.3162Z" fill="white"/>
<path d="M174.924 12.7523L174.013 24.9062L170.92 24.6744L171.035 23.1387C170.601 23.6356 170.05 24.0135 169.384 24.2724C168.733 24.5178 168.035 24.6126 167.289 24.5567C166.338 24.4854 165.512 24.225 164.81 23.7753C164.11 23.3109 163.576 22.6753 163.21 21.8684C162.86 21.0479 162.725 20.0965 162.806 19.0142L163.341 11.8842L166.412 12.1144L165.911 18.8056C165.838 19.7709 166.024 20.5349 166.467 21.0976C166.911 21.6456 167.55 21.9509 168.384 22.0134C169.232 22.077 169.917 21.8709 170.438 21.3952C170.96 20.9048 171.257 20.177 171.329 19.2117L171.831 12.5204L174.924 12.7523Z" fill="white"/>
<path d="M190.852 17.2205C191.382 16.6794 191.995 16.3004 192.691 16.0832C193.402 15.8693 194.158 15.8538 194.959 16.0365L194.239 19.1895L193.445 19.0083C192.502 18.7929 191.736 18.8514 191.149 19.1837C190.576 19.5193 190.164 20.2376 189.912 21.3386L188.561 27.2583L185.558 26.573L188.27 14.6906L191.273 15.3759L190.852 17.2205Z" fill="white"/>
<path d="M210.884 20.8023C211.73 21.1345 212.407 21.5972 212.915 22.1903C213.428 22.7699 213.764 23.3982 213.924 24.0753L214.559 22.4575L217.446 23.5907L212.962 35.0181C212.549 36.0694 211.97 36.9216 211.226 37.5746C210.475 38.2413 209.583 38.6475 208.549 38.7932C207.51 38.9524 206.39 38.7963 205.188 38.3248C203.577 37.6925 202.4 36.7973 201.657 35.6391C200.928 34.4864 200.75 33.2347 201.122 31.8841L203.969 33.0013C203.915 33.579 204.075 34.1145 204.449 34.6078C204.831 35.1201 205.377 35.5155 206.087 35.7942C206.92 36.121 207.695 36.1337 208.412 35.8321C209.123 35.5443 209.677 34.8952 210.074 33.8849L210.765 32.1236C210.188 32.5114 209.501 32.7542 208.707 32.852C207.926 32.9551 207.119 32.8432 206.286 32.5164C205.33 32.1413 204.553 31.5526 203.954 30.7503C203.355 29.9481 202.998 29.0121 202.882 27.9425C202.785 26.8646 202.964 25.7454 203.42 24.5849C203.87 23.4381 204.494 22.5093 205.293 21.7987C206.106 21.0935 206.995 20.6546 207.96 20.4822C208.94 20.3151 209.914 20.4218 210.884 20.8023ZM212.332 28.1302C212.606 27.4339 212.702 26.7864 212.622 26.1878C212.547 25.5754 212.329 25.0485 211.966 24.6069C211.609 24.1517 211.165 23.8195 210.632 23.6106C210.1 23.4016 209.557 23.3384 209.005 23.421C208.453 23.5036 207.934 23.7412 207.449 24.1338C206.983 24.5181 206.616 25.0516 206.348 25.7343C206.08 26.4169 205.981 27.0712 206.05 27.6972C206.139 28.3149 206.355 28.8486 206.698 29.2985C207.055 29.7538 207.493 30.0832 208.012 30.2868C208.544 30.4958 209.094 30.5616 209.66 30.4844C210.231 30.3936 210.75 30.156 211.216 29.7716C211.687 29.3736 212.059 28.8265 212.332 28.1302Z" fill="white"/>
<path d="M234.37 38.7952C234.15 39.1762 233.927 39.5045 233.7 39.78L225.984 35.325C225.607 36.1238 225.529 36.8748 225.75 37.578C225.97 38.2812 226.424 38.8308 227.11 39.2268C228.1 39.7988 229.051 39.7802 229.961 39.1712L232.838 40.8322C231.947 41.6724 230.879 42.1734 229.634 42.3352C228.396 42.4843 227.148 42.1958 225.891 41.4698C224.875 40.8832 224.088 40.1329 223.532 39.219C222.996 38.2997 222.738 37.2953 222.757 36.2057C222.789 35.1234 223.117 34.0425 223.74 32.9628C224.371 31.8705 225.147 31.0398 226.068 30.4709C226.989 29.9019 227.978 29.6262 229.035 29.6436C230.092 29.6611 231.141 29.9705 232.183 30.5718C233.186 31.1511 233.957 31.8841 234.495 32.7706C235.046 33.6644 235.306 34.6361 235.276 35.6857C235.266 36.7299 234.964 37.7664 234.37 38.7952ZM232.047 36.4381C232.431 35.7449 232.498 35.0557 232.25 34.3706C232.01 33.6727 231.54 33.1222 230.842 32.7188C230.181 32.3375 229.505 32.2181 228.813 32.3605C228.141 32.4976 227.549 32.8925 227.037 33.5451L232.047 36.4381Z" fill="white"/>
<path d="M251.808 43.6865C252.943 44.5918 253.573 45.6846 253.696 46.9648C253.828 48.2336 253.383 49.5101 252.358 50.7944L247.901 56.3845L245.492 54.4642L249.69 49.2009C250.293 48.4441 250.566 47.7141 250.508 47.011C250.458 46.2964 250.107 45.6785 249.453 45.1573C248.788 44.6269 248.096 44.4126 247.377 44.5145C246.679 44.6141 246.028 45.0423 245.424 45.7991L241.227 51.0624L238.819 49.142L246.418 39.6131L248.826 41.5334L247.879 42.7203C248.53 42.5635 249.193 42.5671 249.869 42.7309C250.565 42.8925 251.212 43.211 251.808 43.6865Z" fill="white"/>
<path d="M266.411 60.7739L262.089 64.7842C261.788 65.0635 261.633 65.3379 261.623 65.6073C261.633 65.8776 261.798 66.1847 262.117 66.5288L263.09 67.577L261.187 69.3427L259.87 67.9236C258.104 66.0206 258.146 64.2111 259.995 62.4953L264.301 58.4999L263.314 57.4356L265.168 55.7147L266.156 56.7791L268.365 54.7291L270.475 57.003L268.266 59.053L270.121 61.0528L268.267 62.7736L266.411 60.7739Z" fill="white"/>
<path d="M284.362 90.9837C285.498 90.4365 286.601 90.1904 287.669 90.2457C288.751 90.2945 289.72 90.6172 290.577 91.2138C291.448 91.804 292.137 92.6277 292.646 93.6848C293.302 95.0459 293.499 96.3345 293.238 97.5508C292.997 98.7739 292.335 99.8333 291.253 100.729L289.811 97.736C290.211 97.3484 290.45 96.8993 290.53 96.3888C290.629 95.8852 290.545 95.3559 290.278 94.8009C289.896 94.008 289.303 93.5204 288.499 93.3379C287.708 93.149 286.784 93.3091 285.727 93.8182C284.683 94.3209 283.982 94.9435 283.623 95.686C283.277 96.4222 283.296 97.1866 283.677 97.9795C284.218 99.1027 285.074 99.5943 286.243 99.4542L287.685 102.447C286.349 102.716 285.115 102.57 283.982 102.008C282.849 101.447 281.958 100.493 281.308 99.1448C280.799 98.0876 280.579 97.0381 280.647 95.996C280.728 94.9477 281.08 93.9886 281.703 93.1188C282.339 92.2427 283.225 91.531 284.362 90.9837Z" fill="white"/>
<path d="M293.336 110.28C294.513 109.917 295.629 109.826 296.682 110.007C297.74 110.203 298.638 110.624 299.375 111.272C300.116 111.934 300.64 112.762 300.947 113.757C301.215 114.626 301.273 115.437 301.122 116.19C300.975 116.956 300.695 117.618 300.284 118.175L301.944 117.663L302.859 120.627L291.212 124.219L290.298 121.255L292.001 120.73C291.337 120.52 290.72 120.135 290.148 119.575C289.594 119.024 289.184 118.314 288.916 117.445C288.613 116.464 288.589 115.489 288.842 114.521C289.1 113.566 289.612 112.71 290.376 111.953C291.158 111.205 292.145 110.647 293.336 110.28ZM296.121 119.459C296.836 119.238 297.402 118.91 297.82 118.474C298.253 118.034 298.528 117.534 298.648 116.976C298.781 116.413 298.763 115.858 298.595 115.311C298.426 114.765 298.137 114.301 297.728 113.921C297.319 113.541 296.81 113.283 296.201 113.149C295.61 113.024 294.964 113.07 294.263 113.286C293.563 113.502 292.989 113.833 292.543 114.277C292.115 114.731 291.832 115.233 291.695 115.782C291.562 116.345 291.577 116.893 291.741 117.425C291.91 117.972 292.201 118.442 292.614 118.837C293.041 119.227 293.55 119.484 294.142 119.609C294.747 119.729 295.406 119.679 296.121 119.459Z" fill="white"/>
<path d="M304.402 136.707C305.099 137.003 305.676 137.435 306.132 138.004C306.591 138.587 306.882 139.285 307.004 140.097L303.806 140.579L303.685 139.774C303.541 138.817 303.207 138.126 302.683 137.701C302.161 137.29 301.342 137.168 300.225 137.337L294.221 138.242L293.762 135.196L305.814 133.38L306.273 136.425L304.402 136.707Z" fill="white"/>
<path d="M302.358 163.923C301.918 163.923 301.522 163.894 301.17 163.835L301.17 154.925C300.29 154.998 299.601 155.306 299.102 155.849C298.603 156.392 298.354 157.059 298.354 157.851C298.354 158.995 298.845 159.809 299.828 160.293L299.828 163.615C298.655 163.263 297.687 162.588 296.924 161.591C296.176 160.594 295.802 159.369 295.802 157.917C295.802 156.744 296.059 155.688 296.572 154.749C297.1 153.825 297.841 153.099 298.794 152.571C299.747 152.058 300.847 151.801 302.094 151.801C303.355 151.801 304.463 152.058 305.416 152.571C306.369 153.084 307.103 153.803 307.616 154.727C308.129 155.651 308.386 156.714 308.386 157.917C308.386 159.076 308.137 160.11 307.638 161.019C307.139 161.943 306.428 162.654 305.504 163.153C304.595 163.666 303.546 163.923 302.358 163.923ZM303.238 160.733C304.03 160.718 304.661 160.432 305.13 159.875C305.614 159.318 305.856 158.636 305.856 157.829C305.856 157.066 305.621 156.421 305.152 155.893C304.697 155.38 304.059 155.064 303.238 154.947L303.238 160.733Z" fill="white"/>
</svg>
